<svg id="Capa_1" enable-background="new 0 0 510 510" height="512" viewBox="0 0 510 510" width="512" xmlns="http://www.w3.org/2000/svg"><path d="m412.957 187.964v8.642c4.91-.384 17.095-.14 30.007 3.521v-12.163c.001-103.644-84.319-187.964-187.964-187.964s-187.964 84.32-187.964 187.964v12.163c10.796-3.061 22.929-4.075 30.007-3.521v-8.642c0-87.09 70.857-157.957 157.957-157.957s157.957 70.867 157.957 157.957z"/><path d="m412.957 390.142c0 41.784-32.601 70.177-68.606 70.177h-34.965c-5.595-11.637-17.493-19.67-31.269-19.67h-46.235c-19.151 0-34.676 15.525-34.676 34.676 0 19.151 15.525 34.676 34.676 34.676h46.235c13.777 0 25.677-8.035 31.271-19.675h34.963c50.446 0 98.613-38.566 98.613-103.754-11.884 3.41-23.862 4.078-30.007 3.57z"/><path d="m93.552 226.493c-38.468 0-68.851 32.186-66.786 70.606 1.86 34.738 30.607 62.485 65.435 63.165 10.178.255 16.324-7.164 16.324-15.044v-103.673c.001-8.017-6.292-15.054-14.973-15.054z"/><path d="m416.198 226.493c-8.236.074-14.723 6.852-14.723 15.053v103.675c0 7.811 6.08 15.306 16.314 15.044 34.575-.661 63.579-28.197 65.445-63.165 2.035-37.845-27.615-70.607-67.036-70.607z"/><path d="m325.228 296.45c15.921-15.921 15.921-41.735 0-57.656-15.921-15.921-41.735-15.921-57.656 0l-12.572 12.572-12.572-12.572c-15.921-15.921-41.735-15.921-57.656 0-15.921 15.921-15.921 41.735 0 57.656l63.155 63.155c3.906 3.906 10.239 3.906 14.145 0z"/></svg>